<svg width="139" height="67" viewBox="0 0 139 67" fill="none" xmlns="http://www.w3.org/2000/svg">
<path d="M78.7499 22.0745L76.6299 19.9445C76.6199 19.9345 76.5999 19.9245 76.5899 19.9145C76.5862 19.9067 76.5806 19.8998 76.5736 19.8946C76.5666 19.8894 76.5585 19.8859 76.5499 19.8845L75.1299 18.4545L71.6199 14.9445L78.3099 8.24453C78.5443 8.01319 78.7304 7.73759 78.8574 7.43375C78.9844 7.1299 79.0499 6.80386 79.0499 6.47453C79.0499 6.14521 78.9844 5.81916 78.8574 5.51531C78.7304 5.21147 78.5443 4.93588 78.3099 4.70453L74.7799 1.17453C74.3041 0.717408 73.6698 0.462118 73.0099 0.462118C72.3501 0.462118 71.7158 0.717408 71.2399 1.17453L66.2899 6.12453L64.5499 7.87453L60.4299 3.75453L60.2399 3.59453L60.1099 3.54453L54.2099 1.27453L50.9999 0.0345317C50.9105 -0.000830401 50.8127 -0.00925798 50.7185 0.0102872C50.6243 0.0298323 50.5379 0.0764964 50.4699 0.144532C50.4004 0.213666 50.3522 0.30127 50.3309 0.396972C50.3096 0.492673 50.3162 0.592465 50.3499 0.684532L51.5799 3.87453V3.88453L51.6099 3.94453L53.8599 9.79453C53.892 9.92176 53.966 10.0345 54.0699 10.1145L58.1899 14.2345L55.7599 16.6645C55.7342 16.6816 55.7107 16.7017 55.6899 16.7245L53.6399 18.7845C53.6142 18.8015 53.5907 18.8217 53.5699 18.8445L51.4399 20.9745C51.4171 20.9953 51.397 21.0188 51.3799 21.0445L50.7399 21.6745C50.5055 21.9059 50.3194 22.1815 50.1924 22.4853C50.0654 22.7892 50 23.1152 50 23.4445C50 23.7739 50.0654 24.0999 50.1924 24.4037C50.3194 24.7076 50.5055 24.9832 50.7399 25.2145L54.2699 28.7445C54.5013 28.9789 54.7769 29.165 55.0807 29.292C55.3846 29.4191 55.7106 29.4845 56.0399 29.4845C56.3693 29.4845 56.6953 29.4191 56.9991 29.292C57.303 29.165 57.5786 28.9789 57.8099 28.7445L65.2599 21.3045L70.2299 26.2745C70.2399 26.2845 70.2499 26.3045 70.2599 26.3145L72.3899 28.4345C72.6197 28.6675 72.8938 28.8522 73.1961 28.9776C73.4984 29.1029 73.8227 29.1665 74.1499 29.1645C74.4785 29.1657 74.8041 29.1017 75.1079 28.9765C75.4117 28.8512 75.6877 28.667 75.9199 28.4345L78.7499 25.6045C79.2171 25.1359 79.4794 24.5012 79.4794 23.8395C79.4794 23.1778 79.2171 22.5431 78.7499 22.0745ZM66.6499 7.18453L67.7099 8.24453C67.8061 8.32581 67.9295 8.36778 68.0553 8.36205C68.1812 8.35632 68.3002 8.3033 68.3886 8.2136C68.4771 8.12391 68.5284 8.00414 68.5323 7.87824C68.5363 7.75234 68.4926 7.62959 68.4099 7.53453L67.3499 6.47453L68.7699 5.06453L69.8299 6.12453C69.9249 6.2135 70.0498 6.26348 70.1799 6.26453C70.313 6.26357 70.4411 6.21374 70.5399 6.12453C70.6315 6.02902 70.6826 5.90184 70.6826 5.76953C70.6826 5.63723 70.6315 5.51004 70.5399 5.41453L69.4699 4.35453L70.8899 2.93453L73.3599 5.41453C73.4071 5.46206 73.4631 5.49979 73.5249 5.52553C73.5867 5.55128 73.653 5.56453 73.7199 5.56453C73.7854 5.56444 73.8501 5.5511 73.9103 5.52532C73.9704 5.49954 74.0247 5.46185 74.0699 5.41453C74.1168 5.36805 74.154 5.31275 74.1794 5.25182C74.2048 5.19089 74.2178 5.12554 74.2178 5.05953C74.2178 4.99353 74.2048 4.92817 74.1794 4.86724C74.154 4.80631 74.1168 4.75101 74.0699 4.70453L71.5999 2.23453L71.9499 1.87453C72.2312 1.59363 72.6124 1.43585 73.0099 1.43585C73.4074 1.43585 73.7887 1.59363 74.0699 1.87453L77.6099 5.41453C77.8908 5.69578 78.0486 6.07703 78.0486 6.47453C78.0486 6.87203 77.8908 7.25328 77.6099 7.53453L70.9099 14.2345L65.2499 8.57453L66.6499 7.18453ZM64.0999 8.83453C64.1135 8.87657 64.1376 8.91443 64.1699 8.94453L64.1799 8.95453L64.5299 9.30453L66.9999 11.7745C67.03 11.8069 67.0679 11.831 67.1099 11.8445L70.2099 14.9445L70.5599 15.2945L70.9099 15.6445L74.0799 18.8145L73.3699 19.5145L70.2099 16.3545H70.1999L69.8499 16.0045V15.9945L69.4999 15.6545V15.6445L63.8399 9.99453V9.98453L63.4899 9.64453V9.63453L63.1399 9.28453H63.1299L60.9499 7.10453V7.09453C60.6685 6.8135 60.5103 6.43222 60.5099 6.03453V5.24453L63.8399 8.57453L64.0999 8.83453ZM70.5399 22.3445L67.3799 19.1845H67.3699L67.0199 18.8345V18.8245L66.6699 18.4845V18.4745L61.0099 12.8245V12.8145L60.6599 12.4745V12.4645L60.3099 12.1145H60.2999L58.1199 9.92453L58.0899 9.89453C57.8287 9.6149 57.6823 9.24718 57.6799 8.86453V7.86453C57.6799 7.73192 57.7326 7.60475 57.8264 7.51098C57.9201 7.41721 58.0473 7.36453 58.1799 7.36453H59.1799C59.5584 7.36338 59.9231 7.50641 60.1999 7.76453L60.2399 7.80453L62.4299 9.99453L62.7799 10.3445L62.7599 10.3645L63.1099 10.7145L63.1299 10.6945L68.7899 16.3545L69.1399 16.7045L69.4999 17.0645L72.6599 20.2245L70.5399 22.3445ZM53.3699 2.02453C53.1272 2.45899 52.7667 2.81604 52.3299 3.05453L51.6899 1.37453L53.3699 2.02453ZM54.3199 2.38453L59.5099 4.38453V6.03453C59.51 6.15515 59.52 6.27557 59.5399 6.39453C59.421 6.37461 59.3005 6.36457 59.1799 6.36453H58.1799C57.7821 6.36453 57.4006 6.52257 57.1193 6.80387C56.838 7.08518 56.6799 7.46671 56.6799 7.86453V8.86453C56.68 8.98515 56.69 9.10557 56.7099 9.22453C56.591 9.20461 56.4705 9.19457 56.3499 9.19453H54.6999L52.6999 3.99453C53.3938 3.63888 53.96 3.07623 54.3199 2.38453ZM57.0999 28.0445C56.8129 28.3142 56.4338 28.4644 56.0399 28.4644C55.646 28.4644 55.267 28.3142 54.9799 28.0445L51.4399 24.5045C51.159 24.2233 51.0012 23.842 51.0012 23.4445C51.0012 23.047 51.159 22.6658 51.4399 22.3845L51.7999 22.0345L54.2699 24.5045C54.3161 24.552 54.3712 24.5897 54.4322 24.6155C54.4932 24.6413 54.5587 24.6546 54.6249 24.6546C54.6911 24.6546 54.7567 24.6413 54.8176 24.6155C54.8786 24.5897 54.9338 24.552 54.9799 24.5045C55.0715 24.409 55.1226 24.2818 55.1226 24.1495C55.1226 24.0172 55.0715 23.89 54.9799 23.7945L52.4999 21.3245L53.9199 19.9045L54.9799 20.9745C55.0749 21.0635 55.1998 21.1135 55.3299 21.1145C55.463 21.1136 55.5911 21.0637 55.6899 20.9745C55.7815 20.879 55.8326 20.7518 55.8326 20.6195C55.8326 20.4872 55.7815 20.36 55.6899 20.2645L54.6299 19.2045L56.0399 17.7845L57.0999 18.8445C57.1922 18.9387 57.318 18.9927 57.4499 18.9945C57.5169 18.9945 57.5831 18.9813 57.6449 18.9555C57.7067 18.9298 57.7628 18.8921 57.8099 18.8445C57.9015 18.7511 57.9529 18.6254 57.9529 18.4945C57.9529 18.3637 57.9015 18.238 57.8099 18.1445L56.7499 17.0845L58.8899 14.9345L64.5499 20.5945L57.0999 28.0445ZM65.6099 20.2445L65.2599 19.8945L59.5999 14.2345L59.2499 13.8845L58.8899 13.5245L55.5599 10.1945H56.3499C56.7476 10.1949 57.1289 10.3531 57.4099 10.6345L59.5999 12.8245L59.8599 13.0845C59.8735 13.1266 59.8976 13.1645 59.9299 13.1945L60.2799 13.5445L61.3399 14.6045C61.37 14.6369 61.4079 14.661 61.4499 14.6745L65.9599 19.1845L66.3099 19.5345L66.6699 19.8945L69.8299 23.0545L69.1299 23.7645L65.9599 20.5945L65.6099 20.2445ZM69.8299 24.4645L70.8599 23.4245L70.9099 23.3745L73.6899 20.5945L73.7399 20.5445L74.7799 19.5145L75.5699 20.3045L70.6199 25.2545L69.8299 24.4645ZM78.0399 24.8945L75.2099 27.7245C75.0713 27.8647 74.9062 27.976 74.7242 28.0519C74.5423 28.1279 74.3471 28.167 74.1499 28.167C73.9528 28.167 73.7576 28.1279 73.5756 28.0519C73.3937 27.976 73.2286 27.8647 73.0899 27.7245L71.3199 25.9545L76.2699 21.0045L78.0399 22.7745C78.1801 22.9132 78.2914 23.0783 78.3673 23.2602C78.4433 23.4422 78.4824 23.6374 78.4824 23.8345C78.4824 24.0317 78.4433 24.2269 78.3673 24.4088C78.2914 24.5908 78.1801 24.7559 78.0399 24.8945Z" fill="#C1C2C5"/>
<line x1="46" y1="25.5" x2="28" y2="25.5" stroke="#1971C2"/>
<line x1="101" y1="25.5" x2="83" y2="25.5" stroke="#1971C2"/>
<path d="M1.296 49V36.346H3.744V49H1.296ZM9.234 49V36.346H11.682V49H9.234ZM2.844 43.546V41.386H9.918V43.546H2.844ZM17.6527 49.18C16.8607 49.18 16.1467 48.982 15.5107 48.586C14.8747 48.19 14.3767 47.65 14.0167 46.966C13.6567 46.282 13.4767 45.514 13.4767 44.662C13.4767 43.798 13.6567 43.024 14.0167 42.34C14.3767 41.656 14.8747 41.116 15.5107 40.72C16.1467 40.324 16.8607 40.126 17.6527 40.126C18.2767 40.126 18.8347 40.252 19.3267 40.504C19.8187 40.756 20.2087 41.11 20.4967 41.566C20.7967 42.01 20.9587 42.514 20.9827 43.078V46.21C20.9587 46.786 20.7967 47.296 20.4967 47.74C20.2087 48.184 19.8187 48.538 19.3267 48.802C18.8347 49.054 18.2767 49.18 17.6527 49.18ZM18.0847 47.002C18.7447 47.002 19.2787 46.786 19.6867 46.354C20.0947 45.91 20.2987 45.34 20.2987 44.644C20.2987 44.188 20.2027 43.786 20.0107 43.438C19.8307 43.078 19.5727 42.802 19.2367 42.61C18.9127 42.406 18.5287 42.304 18.0847 42.304C17.6527 42.304 17.2687 42.406 16.9327 42.61C16.6087 42.802 16.3507 43.078 16.1587 43.438C15.9787 43.786 15.8887 44.188 15.8887 44.644C15.8887 45.112 15.9787 45.526 16.1587 45.886C16.3507 46.234 16.6087 46.51 16.9327 46.714C17.2687 46.906 17.6527 47.002 18.0847 47.002ZM20.1727 49V46.66L20.5507 44.536L20.1727 42.448V40.306H22.5127V49H20.1727ZM24.5987 49V40.306H26.9567V49H24.5987ZM30.2687 49V43.87C30.2687 43.366 30.1067 42.976 29.7827 42.7C29.4707 42.412 29.0807 42.268 28.6127 42.268C28.3007 42.268 28.0187 42.334 27.7667 42.466C27.5147 42.586 27.3167 42.766 27.1727 43.006C27.0287 43.246 26.9567 43.534 26.9567 43.87L26.0387 43.42C26.0387 42.748 26.1827 42.166 26.4707 41.674C26.7707 41.182 27.1727 40.804 27.6767 40.54C28.1807 40.264 28.7507 40.126 29.3867 40.126C29.9867 40.126 30.5327 40.264 31.0247 40.54C31.5167 40.804 31.9067 41.182 32.1947 41.674C32.4827 42.154 32.6267 42.736 32.6267 43.42V49H30.2687ZM35.9387 49V43.87C35.9387 43.366 35.7767 42.976 35.4527 42.7C35.1407 42.412 34.7507 42.268 34.2827 42.268C33.9827 42.268 33.7007 42.334 33.4367 42.466C33.1847 42.586 32.9867 42.766 32.8427 43.006C32.6987 43.246 32.6267 43.534 32.6267 43.87L31.2767 43.546C31.3247 42.85 31.5107 42.25 31.8347 41.746C32.1587 41.23 32.5847 40.834 33.1127 40.558C33.6407 40.27 34.2287 40.126 34.8767 40.126C35.5247 40.126 36.1067 40.264 36.6227 40.54C37.1387 40.804 37.5467 41.188 37.8467 41.692C38.1467 42.196 38.2967 42.796 38.2967 43.492V49H35.9387ZM45.0321 49.18C44.4081 49.18 43.8441 49.054 43.3401 48.802C42.8361 48.538 42.4341 48.184 42.1341 47.74C41.8341 47.296 41.6721 46.786 41.6481 46.21V43.132C41.6721 42.556 41.8341 42.046 42.1341 41.602C42.4461 41.146 42.8481 40.786 43.3401 40.522C43.8441 40.258 44.4081 40.126 45.0321 40.126C45.8361 40.126 46.5561 40.324 47.1921 40.72C47.8281 41.116 48.3261 41.656 48.6861 42.34C49.0581 43.024 49.2441 43.798 49.2441 44.662C49.2441 45.514 49.0581 46.282 48.6861 46.966C48.3261 47.65 47.8281 48.19 47.1921 48.586C46.5561 48.982 45.8361 49.18 45.0321 49.18ZM44.6181 47.002C45.0501 47.002 45.4341 46.906 45.7701 46.714C46.1061 46.51 46.3641 46.234 46.5441 45.886C46.7361 45.526 46.8321 45.112 46.8321 44.644C46.8321 44.188 46.7361 43.786 46.5441 43.438C46.3641 43.078 46.1061 42.802 45.7701 42.61C45.4341 42.406 45.0501 42.304 44.6181 42.304C44.1981 42.304 43.8201 42.406 43.4841 42.61C43.1481 42.802 42.8841 43.078 42.6921 43.438C42.5121 43.786 42.4221 44.188 42.4221 44.644C42.4221 45.112 42.5121 45.526 42.6921 45.886C42.8841 46.234 43.1421 46.51 43.4661 46.714C43.8021 46.906 44.1861 47.002 44.6181 47.002ZM40.2081 52.636V40.306H42.5661V42.592L42.1701 44.698L42.5481 46.804V52.636H40.2081ZM54.4981 49.18C53.7301 49.18 53.0461 49.018 52.4461 48.694C51.8581 48.37 51.3961 47.92 51.0601 47.344C50.7241 46.768 50.5561 46.102 50.5561 45.346V40.306H52.9321V45.292C52.9321 45.652 52.9921 45.964 53.1121 46.228C53.2321 46.48 53.4121 46.672 53.6521 46.804C53.8921 46.936 54.1741 47.002 54.4981 47.002C54.9901 47.002 55.3741 46.852 55.6501 46.552C55.9261 46.252 56.0641 45.832 56.0641 45.292V40.306H58.4221V45.346C58.4221 46.114 58.2541 46.786 57.9181 47.362C57.5941 47.938 57.1321 48.388 56.5321 48.712C55.9441 49.024 55.2661 49.18 54.4981 49.18ZM63.2879 49.198C62.7959 49.198 62.3099 49.132 61.8299 49C61.3619 48.868 60.9299 48.688 60.5339 48.46C60.1379 48.22 59.7959 47.932 59.5079 47.596L60.9119 46.174C61.2119 46.51 61.5599 46.762 61.9559 46.93C62.3519 47.098 62.7899 47.182 63.2699 47.182C63.6539 47.182 63.9419 47.128 64.1339 47.02C64.3379 46.912 64.4399 46.75 64.4399 46.534C64.4399 46.294 64.3319 46.108 64.1159 45.976C63.9119 45.844 63.6419 45.736 63.3059 45.652C62.9699 45.556 62.6159 45.454 62.2439 45.346C61.8839 45.226 61.5359 45.076 61.1999 44.896C60.8639 44.704 60.5879 44.446 60.3719 44.122C60.1679 43.786 60.0659 43.354 60.0659 42.826C60.0659 42.274 60.1979 41.794 60.4619 41.386C60.7379 40.978 61.1279 40.66 61.6319 40.432C62.1359 40.204 62.7299 40.09 63.4139 40.09C64.1339 40.09 64.7819 40.216 65.3579 40.468C65.9459 40.72 66.4319 41.098 66.8159 41.602L65.3939 43.024C65.1299 42.7 64.8299 42.466 64.4939 42.322C64.1699 42.178 63.8159 42.106 63.4319 42.106C63.0839 42.106 62.8139 42.16 62.6219 42.268C62.4419 42.376 62.3519 42.526 62.3519 42.718C62.3519 42.934 62.4539 43.102 62.6579 43.222C62.8739 43.342 63.1499 43.45 63.4859 43.546C63.8219 43.63 64.1699 43.732 64.5299 43.852C64.9019 43.96 65.2499 44.116 65.5739 44.32C65.9099 44.524 66.1799 44.794 66.3839 45.13C66.5999 45.466 66.7079 45.898 66.7079 46.426C66.7079 47.278 66.4019 47.956 65.7899 48.46C65.1779 48.952 64.3439 49.198 63.2879 49.198ZM72.0655 49V36.346H74.5135V49H72.0655ZM79.8465 49.198C79.3545 49.198 78.8685 49.132 78.3885 49C77.9205 48.868 77.4885 48.688 77.0925 48.46C76.6965 48.22 76.3545 47.932 76.0665 47.596L77.4705 46.174C77.7705 46.51 78.1185 46.762 78.5145 46.93C78.9105 47.098 79.3485 47.182 79.8285 47.182C80.2125 47.182 80.5005 47.128 80.6925 47.02C80.8965 46.912 80.9985 46.75 80.9985 46.534C80.9985 46.294 80.8905 46.108 80.6745 45.976C80.4705 45.844 80.2005 45.736 79.8645 45.652C79.5285 45.556 79.1745 45.454 78.8025 45.346C78.4425 45.226 78.0945 45.076 77.7585 44.896C77.4225 44.704 77.1465 44.446 76.9305 44.122C76.7265 43.786 76.6245 43.354 76.6245 42.826C76.6245 42.274 76.7565 41.794 77.0205 41.386C77.2965 40.978 77.6865 40.66 78.1905 40.432C78.6945 40.204 79.2885 40.09 79.9725 40.09C80.6925 40.09 81.3405 40.216 81.9165 40.468C82.5045 40.72 82.9905 41.098 83.3745 41.602L81.9525 43.024C81.6885 42.7 81.3885 42.466 81.0525 42.322C80.7285 42.178 80.3745 42.106 79.9905 42.106C79.6425 42.106 79.3725 42.16 79.1805 42.268C79.0005 42.376 78.9105 42.526 78.9105 42.718C78.9105 42.934 79.0125 43.102 79.2165 43.222C79.4325 43.342 79.7085 43.45 80.0445 43.546C80.3805 43.63 80.7285 43.732 81.0885 43.852C81.4605 43.96 81.8085 44.116 82.1325 44.32C82.4685 44.524 82.7385 44.794 82.9425 45.13C83.1585 45.466 83.2665 45.898 83.2665 46.426C83.2665 47.278 82.9605 47.956 82.3485 48.46C81.7365 48.952 80.9025 49.198 79.8465 49.198ZM89.0145 49.18C88.1025 49.18 87.2925 48.988 86.5845 48.604C85.8765 48.208 85.3125 47.668 84.8925 46.984C84.4845 46.3 84.2805 45.52 84.2805 44.644C84.2805 43.78 84.4785 43.012 84.8745 42.34C85.2825 41.656 85.8345 41.116 86.5305 40.72C87.2265 40.312 88.0005 40.108 88.8525 40.108C89.6925 40.108 90.4305 40.3 91.0665 40.684C91.7145 41.056 92.2185 41.572 92.5785 42.232C92.9505 42.88 93.1365 43.618 93.1365 44.446C93.1365 44.602 93.1245 44.764 93.1005 44.932C93.0885 45.088 93.0585 45.268 93.0105 45.472L85.7025 45.49V43.726L91.9125 43.708L90.9585 44.446C90.9345 43.93 90.8385 43.498 90.6705 43.15C90.5145 42.802 90.2805 42.538 89.9685 42.358C89.6685 42.166 89.2965 42.07 88.8525 42.07C88.3845 42.07 87.9765 42.178 87.6285 42.394C87.2805 42.598 87.0105 42.892 86.8185 43.276C86.6385 43.648 86.5485 44.092 86.5485 44.608C86.5485 45.136 86.6445 45.598 86.8365 45.994C87.0405 46.378 87.3285 46.678 87.7005 46.894C88.0725 47.098 88.5045 47.2 88.9965 47.2C89.4405 47.2 89.8425 47.128 90.2025 46.984C90.5625 46.828 90.8745 46.6 91.1385 46.3L92.5245 47.686C92.1045 48.178 91.5885 48.55 90.9765 48.802C90.3765 49.054 89.7225 49.18 89.0145 49.18ZM99.4188 49.18C98.7948 49.18 98.2308 49.048 97.7268 48.784C97.2228 48.52 96.8208 48.16 96.5208 47.704C96.2208 47.248 96.0588 46.738 96.0348 46.174V43.078C96.0588 42.514 96.2208 42.01 96.5208 41.566C96.8328 41.11 97.2408 40.756 97.7448 40.504C98.2488 40.252 98.8068 40.126 99.4188 40.126C100.223 40.126 100.943 40.324 101.579 40.72C102.215 41.116 102.713 41.656 103.073 42.34C103.445 43.024 103.631 43.798 103.631 44.662C103.631 45.514 103.445 46.282 103.073 46.966C102.713 47.65 102.215 48.19 101.579 48.586C100.943 48.982 100.223 49.18 99.4188 49.18ZM99.0228 47.002C99.4548 47.002 99.8328 46.906 100.157 46.714C100.493 46.51 100.751 46.234 100.931 45.886C101.123 45.526 101.219 45.112 101.219 44.644C101.219 44.188 101.123 43.786 100.931 43.438C100.751 43.078 100.493 42.802 100.157 42.61C99.8208 42.406 99.4368 42.304 99.0048 42.304C98.5728 42.304 98.1888 42.406 97.8528 42.61C97.5288 42.802 97.2708 43.078 97.0788 43.438C96.8988 43.786 96.8088 44.188 96.8088 44.644C96.8088 45.112 96.8988 45.526 97.0788 45.886C97.2708 46.234 97.5348 46.51 97.8708 46.714C98.2068 46.906 98.5908 47.002 99.0228 47.002ZM94.5948 49V35.986H96.9528V42.448L96.5568 44.536L96.9348 46.66V49H94.5948ZM105.177 49V40.306H107.535V49H105.177ZM107.535 44.194L106.617 43.582C106.725 42.514 107.037 41.674 107.553 41.062C108.069 40.438 108.813 40.126 109.785 40.126C110.205 40.126 110.583 40.198 110.919 40.342C111.255 40.474 111.561 40.696 111.837 41.008L110.361 42.7C110.229 42.556 110.067 42.448 109.875 42.376C109.695 42.304 109.485 42.268 109.245 42.268C108.741 42.268 108.327 42.43 108.003 42.754C107.691 43.066 107.535 43.546 107.535 44.194ZM112.665 49V40.306H115.041V49H112.665ZM113.853 38.902C113.469 38.902 113.151 38.776 112.899 38.524C112.647 38.26 112.521 37.936 112.521 37.552C112.521 37.18 112.647 36.862 112.899 36.598C113.151 36.334 113.469 36.202 113.853 36.202C114.249 36.202 114.567 36.334 114.807 36.598C115.059 36.862 115.185 37.18 115.185 37.552C115.185 37.936 115.059 38.26 114.807 38.524C114.567 38.776 114.249 38.902 113.853 38.902ZM122.98 49V44.014C122.98 43.498 122.818 43.078 122.494 42.754C122.17 42.43 121.75 42.268 121.234 42.268C120.898 42.268 120.598 42.34 120.334 42.484C120.07 42.628 119.86 42.832 119.704 43.096C119.56 43.36 119.488 43.666 119.488 44.014L118.57 43.546C118.57 42.862 118.714 42.268 119.002 41.764C119.302 41.248 119.71 40.846 120.226 40.558C120.754 40.27 121.348 40.126 122.008 40.126C122.644 40.126 123.214 40.288 123.718 40.612C124.222 40.924 124.618 41.338 124.906 41.854C125.194 42.358 125.338 42.904 125.338 43.492V49H122.98ZM117.13 49V40.306H119.488V49H117.13ZM130.873 52.852C129.949 52.852 129.133 52.684 128.425 52.348C127.717 52.024 127.153 51.562 126.733 50.962L128.227 49.468C128.563 49.864 128.935 50.164 129.343 50.368C129.763 50.584 130.267 50.692 130.855 50.692C131.587 50.692 132.163 50.506 132.583 50.134C133.015 49.762 133.231 49.246 133.231 48.586V46.408L133.627 44.5L133.249 42.592V40.306H135.589V48.55C135.589 49.414 135.385 50.164 134.977 50.8C134.581 51.448 134.029 51.952 133.321 52.312C132.613 52.672 131.797 52.852 130.873 52.852ZM130.765 48.766C129.985 48.766 129.283 48.58 128.659 48.208C128.035 47.824 127.543 47.302 127.183 46.642C126.835 45.982 126.661 45.244 126.661 44.428C126.661 43.612 126.835 42.88 127.183 42.232C127.543 41.584 128.035 41.074 128.659 40.702C129.283 40.318 129.985 40.126 130.765 40.126C131.413 40.126 131.983 40.252 132.475 40.504C132.979 40.756 133.375 41.104 133.663 41.548C133.951 41.98 134.107 42.49 134.131 43.078V45.814C134.107 46.39 133.945 46.906 133.645 47.362C133.357 47.806 132.961 48.154 132.457 48.406C131.965 48.646 131.401 48.766 130.765 48.766ZM131.233 46.624C131.665 46.624 132.037 46.534 132.349 46.354C132.673 46.162 132.925 45.904 133.105 45.58C133.285 45.244 133.375 44.866 133.375 44.446C133.375 44.014 133.285 43.636 133.105 43.312C132.925 42.988 132.673 42.736 132.349 42.556C132.037 42.364 131.665 42.268 131.233 42.268C130.801 42.268 130.423 42.364 130.099 42.556C129.775 42.736 129.523 42.994 129.343 43.33C129.163 43.654 129.073 44.026 129.073 44.446C129.073 44.854 129.163 45.226 129.343 45.562C129.523 45.886 129.775 46.144 130.099 46.336C130.423 46.528 130.801 46.624 131.233 46.624Z" fill="#C1C2C5"/>
<path d="M1.452 63V62.412H3.996C4.684 62.412 5.288 62.264 5.808 61.968C6.336 61.664 6.748 61.248 7.044 60.72C7.34 60.192 7.488 59.584 7.488 58.896C7.488 58.216 7.34 57.612 7.044 57.084C6.748 56.556 6.336 56.144 5.808 55.848C5.28 55.552 4.676 55.404 3.996 55.404H1.488V54.816H4.008C4.608 54.816 5.16 54.92 5.664 55.128C6.168 55.328 6.604 55.612 6.972 55.98C7.348 56.34 7.636 56.772 7.836 57.276C8.044 57.772 8.148 58.316 8.148 58.908C8.148 59.492 8.044 60.036 7.836 60.54C7.636 61.036 7.352 61.468 6.984 61.836C6.616 62.204 6.18 62.492 5.676 62.7C5.172 62.9 4.624 63 4.032 63H1.452ZM1.116 63V54.816H1.752V63H1.116ZM13.019 63V54.816H13.655V63H13.019ZM13.427 63V62.424H18.347V63H13.427ZM13.427 59.076V58.524H17.975V59.076H13.427ZM13.427 55.392V54.816H18.287V55.392H13.427ZM25.3852 63.12C24.7452 63.12 24.1932 63 23.7292 62.76C23.2652 62.512 22.8652 62.172 22.5292 61.74L22.9732 61.308C23.2852 61.732 23.6372 62.044 24.0292 62.244C24.4292 62.436 24.8892 62.532 25.4092 62.532C25.9692 62.532 26.4252 62.4 26.7772 62.136C27.1292 61.872 27.3052 61.504 27.3052 61.032C27.3052 60.672 27.2292 60.38 27.0772 60.156C26.9252 59.932 26.7212 59.748 26.4652 59.604C26.2172 59.46 25.9412 59.332 25.6372 59.22C25.3412 59.108 25.0412 58.996 24.7372 58.884C24.4412 58.764 24.1692 58.62 23.9212 58.452C23.6732 58.276 23.4692 58.052 23.3092 57.78C23.1572 57.508 23.0812 57.164 23.0812 56.748C23.0812 56.332 23.1812 55.972 23.3812 55.668C23.5892 55.356 23.8692 55.116 24.2212 54.948C24.5812 54.78 24.9932 54.696 25.4572 54.696C25.9852 54.696 26.4572 54.8 26.8732 55.008C27.2892 55.208 27.6372 55.492 27.9172 55.86L27.4732 56.292C27.2092 55.964 26.9132 55.716 26.5852 55.548C26.2652 55.372 25.8852 55.284 25.4452 55.284C24.9332 55.284 24.5172 55.412 24.1972 55.668C23.8852 55.916 23.7292 56.264 23.7292 56.712C23.7292 57.048 23.8052 57.32 23.9572 57.528C24.1092 57.736 24.3092 57.912 24.5572 58.056C24.8132 58.192 25.0892 58.312 25.3852 58.416C25.6892 58.52 25.9892 58.632 26.2852 58.752C26.5812 58.872 26.8532 59.024 27.1012 59.208C27.3572 59.384 27.5612 59.612 27.7132 59.892C27.8652 60.172 27.9412 60.528 27.9412 60.96C27.9412 61.656 27.7092 62.192 27.2452 62.568C26.7892 62.936 26.1692 63.12 25.3852 63.12ZM32.7819 63V54.816H33.4179V63H32.7819ZM42.4049 63.108C41.8129 63.108 41.2649 63.004 40.7609 62.796C40.2569 62.58 39.8209 62.284 39.4529 61.908C39.0849 61.532 38.7969 61.088 38.5889 60.576C38.3889 60.064 38.2889 59.508 38.2889 58.908C38.2889 58.308 38.3929 57.752 38.6009 57.24C38.8089 56.728 39.0969 56.28 39.4649 55.896C39.8409 55.512 40.2809 55.216 40.7849 55.008C41.2889 54.792 41.8369 54.684 42.4289 54.684C43.0929 54.684 43.7009 54.816 44.2529 55.08C44.8049 55.344 45.2529 55.724 45.5969 56.22L45.1529 56.664C44.8489 56.224 44.4609 55.888 43.9889 55.656C43.5249 55.416 43.0049 55.296 42.4289 55.296C41.7569 55.296 41.1569 55.452 40.6289 55.764C40.1009 56.076 39.6889 56.504 39.3929 57.048C39.0969 57.592 38.9489 58.212 38.9489 58.908C38.9489 59.604 39.0969 60.224 39.3929 60.768C39.6889 61.312 40.0929 61.736 40.6049 62.04C41.1169 62.344 41.7089 62.496 42.3809 62.496C43.0209 62.496 43.5769 62.364 44.0489 62.1C44.5209 61.836 44.8889 61.452 45.1529 60.948C45.4169 60.436 45.5489 59.828 45.5489 59.124L45.8729 59.364H42.2609V58.788H46.2089V58.896C46.2089 59.792 46.0489 60.556 45.7289 61.188C45.4169 61.812 44.9729 62.288 44.3969 62.616C43.8289 62.944 43.1649 63.108 42.4049 63.108ZM51.0097 63V54.816H51.4657L51.6457 55.584V63H51.0097ZM56.6737 63L51.3697 55.656L51.4657 54.816L56.7817 62.148L56.6737 63ZM56.6737 63L56.4937 62.256V54.816H57.1297V63H56.6737ZM70.9527 63V54.816H71.5887V63H70.9527ZM71.3607 59.208V58.632H75.8487V59.208H71.3607ZM71.3607 55.392V54.816H76.0527V55.392H71.3607ZM84.336 63.12C83.76 63.12 83.224 63.012 82.728 62.796C82.24 62.58 81.812 62.28 81.444 61.896C81.076 61.504 80.788 61.052 80.58 60.54C80.38 60.028 80.28 59.48 80.28 58.896C80.28 58.304 80.38 57.756 80.58 57.252C80.78 56.74 81.064 56.292 81.432 55.908C81.8 55.524 82.228 55.228 82.716 55.02C83.204 54.804 83.736 54.696 84.312 54.696C84.888 54.696 85.42 54.804 85.908 55.02C86.404 55.228 86.832 55.524 87.192 55.908C87.56 56.292 87.848 56.74 88.056 57.252C88.264 57.764 88.368 58.316 88.368 58.908C88.368 59.492 88.264 60.04 88.056 60.552C87.856 61.064 87.572 61.512 87.204 61.896C86.836 62.28 86.408 62.58 85.92 62.796C85.44 63.012 84.912 63.12 84.336 63.12ZM84.312 62.508C84.968 62.508 85.548 62.352 86.052 62.04C86.564 61.72 86.968 61.288 87.264 60.744C87.56 60.2 87.708 59.584 87.708 58.896C87.708 58.384 87.62 57.912 87.444 57.48C87.276 57.04 87.04 56.66 86.736 56.34C86.432 56.012 86.072 55.76 85.656 55.584C85.248 55.4 84.8 55.308 84.312 55.308C83.664 55.308 83.084 55.464 82.572 55.776C82.068 56.088 81.668 56.516 81.372 57.06C81.084 57.596 80.94 58.208 80.94 58.896C80.94 59.408 81.024 59.884 81.192 60.324C81.36 60.764 81.596 61.148 81.9 61.476C82.204 61.804 82.56 62.06 82.968 62.244C83.384 62.42 83.832 62.508 84.312 62.508ZM93.6075 59.244V58.704H96.1395C96.7395 58.704 97.1995 58.552 97.5195 58.248C97.8395 57.944 97.9995 57.54 97.9995 57.036C97.9995 56.54 97.8395 56.14 97.5195 55.836C97.2075 55.532 96.7475 55.38 96.1395 55.38H93.6075V54.816H96.1155C96.6435 54.816 97.0955 54.912 97.4715 55.104C97.8475 55.288 98.1355 55.548 98.3355 55.884C98.5355 56.212 98.6355 56.596 98.6355 57.036C98.6355 57.476 98.5355 57.864 98.3355 58.2C98.1355 58.528 97.8475 58.784 97.4715 58.968C97.0955 59.152 96.6435 59.244 96.1155 59.244H93.6075ZM93.2235 63V54.816H93.8595V63H93.2235ZM98.4075 63L95.2395 59.1L95.8755 58.932L99.2355 63H98.4075ZM111.5 63L114.836 54.816H115.34L118.664 63H117.968L114.956 55.464H115.208L112.172 63H111.5ZM112.952 60.588V60.024H117.212V60.588H112.952ZM122.984 63V54.816H123.62V63H122.984ZM123.392 63V62.424H128.012V63H123.392ZM132.59 63V54.816H133.226V63H132.59ZM132.998 63V62.424H137.618V63H132.998Z" fill="#C1C2C5"/>
<line x1="2" y1="32.5" x2="134" y2="32.5" stroke="#1971C2"/>
</svg>
