<svg xmlns="http://www.w3.org/2000/svg" version="1.1" xmlns:xlink="http://www.w3.org/1999/xlink" xmlns:svgjs="http://svgjs.dev/svgjs" width="1440" height="560" preserveAspectRatio="none" viewBox="0 0 1440 560"><g mask="url(&quot;#SvgjsMask1088&quot;)" fill="none"><path d="M1404.08 565.1700000000001 L1530.27 618.5500000000001L1374.9164531707531 684.118546829247z" stroke="rgba(24, 100, 171, 1)" stroke-width="1.54" stroke-dasharray="2, 2"></path><path d="M1042.09 281.81 L978.99 324.72L970.160304493106 262.885304493106z" fill="rgba(24, 100, 171, 1)"></path><rect width="334.08" height="334.08" clip-path="url(&quot;#SvgjsClipPath1089&quot;)" x="104.06" y="5.54" fill="url(&quot;#SvgjsPattern1090&quot;)" transform="rotate(122.1, 271.1, 172.58)"></rect><path d="M1300.84 249.23000000000002 L1267.07 256.03L1307.9005594986681 276.57555949866827z" fill="rgba(182, 198, 247, 1)"></path><rect width="339.36" height="339.36" clip-path="url(&quot;#SvgjsClipPath1091&quot;)" x="454.89" y="365.08" fill="url(&quot;#SvgjsPattern1092&quot;)" transform="rotate(93.83, 624.57, 534.76)"></rect><path d="M1314.03 452.11L1304.69 460.87 1294.09 453.69 1284.76 462.46 1274.16 455.27 1264.82 464.04 1254.22 456.86M1313.4 444.13L1304.06 452.9 1293.46 445.72 1284.12 454.48 1273.52 447.3 1264.19 456.07 1253.58 448.88" stroke="rgba(24, 100, 171, 1)" stroke-width="1.4"></path><rect width="105.4" height="105.4" clip-path="url(&quot;#SvgjsClipPath1093&quot;)" x="1084.21" y="468.31" fill="url(&quot;#SvgjsPattern1094&quot;)" transform="rotate(304.07, 1136.91, 521.01)"></rect><rect width="348" height="348" clip-path="url(&quot;#SvgjsClipPath1095&quot;)" x="854" y="-20.41" fill="url(&quot;#SvgjsPattern1096&quot;)" transform="rotate(17.27, 1028, 153.59)"></rect><path d="M1340.78 468.78a5.6 5.6 0 1 0 10.78-3.02 5.6 5.6 0 1 0-10.78 3.02zM1356.19 464.46a5.6 5.6 0 1 0 10.78-3.02 5.6 5.6 0 1 0-10.78 3.02zM1371.59 460.15a5.6 5.6 0 1 0 10.79-3.02 5.6 5.6 0 1 0-10.79 3.02zM1387 455.83a5.6 5.6 0 1 0 10.78-3.02 5.6 5.6 0 1 0-10.78 3.02z" fill="rgba(182, 198, 247, 1)"></path><path d="M684.47 393.93L689.27 405.8 678.73 413.09 683.53 424.96 673 432.25 677.8 444.13 667.27 451.41M676.8 391.64L681.6 403.51 671.07 410.8 675.87 422.67 665.34 429.96 670.13 441.83 659.6 449.12" stroke="rgba(24, 100, 171, 1)" stroke-width="2.14" stroke-dasharray="3, 3"></path><path d="M412.86 546.94 L455.49 616.87L387.2871582956251 628.792841704375z" stroke="rgba(24, 100, 171, 1)" stroke-width="1" stroke-dasharray="2, 2"></path><path d="M720.87 425.86 L765.16 285.97L647.6551062983174 260.55510629831747z" fill="rgba(53, 150, 230, 1)"></path></g><defs><mask id="SvgjsMask1088"><rect width="1440" height="560" fill="#ffffff"></rect></mask><pattern x="0" y="0" width="334.08" height="10.44" patternUnits="userSpaceOnUse" id="SvgjsPattern1090"><rect width="334.08" height="5.22" x="0" y="0" fill="rgba(182, 198, 247, 1)"></rect><rect width="334.08" height="5.22" x="0" y="5.22" fill="rgba(0, 0, 0, 0)"></rect></pattern><clipPath id="SvgjsClipPath1089"><circle r="83.52" cx="271.1" cy="172.58"></circle></clipPath><pattern x="0" y="0" width="8.08" height="8.08" patternUnits="userSpaceOnUse" id="SvgjsPattern1092"><path d="M0 8.08L4.04 0L8.08 8.08" stroke="rgba(182, 198, 247, 1)" fill="none"></path></pattern><clipPath id="SvgjsClipPath1091"><circle r="84.84" cx="624.57" cy="534.76"></circle></clipPath><pattern x="0" y="0" width="10.54" height="10.54" patternUnits="userSpaceOnUse" id="SvgjsPattern1094"><path d="M5.27 1L5.27 9.54M1 5.27L9.54 5.27" stroke="rgba(53, 150, 230, 1)" fill="none" stroke-width="2.75"></path></pattern><clipPath id="SvgjsClipPath1093"><circle r="26.35" cx="1136.91" cy="521.01"></circle></clipPath><pattern x="0" y="0" width="6" height="6" patternUnits="userSpaceOnUse" id="SvgjsPattern1096"><path d="M0 6L3 0L6 6" stroke="rgba(53, 150, 230, 1)" fill="none"></path></pattern><clipPath id="SvgjsClipPath1095"><circle r="87" cx="1028" cy="153.59"></circle></clipPath></defs></svg>