<svg xmlns="http://www.w3.org/2000/svg" version="1.1" xmlns:xlink="http://www.w3.org/1999/xlink" xmlns:svgjs="http://svgjs.dev/svgjs" width="1440" height="560" preserveAspectRatio="none" viewBox="0 0 1440 560"><g mask="url(&quot;#SvgjsMask1038&quot;)" fill="none"><path d="M33.07960992579178 185.98799152640353L170.69715336634235 89.62715021942775 74.33631205936658-47.990393221122844-63.28123138118401 48.370448085852956z" fill="rgba(53, 150, 230, 0.4)" class="triangle-float1"></path><path d="M91.988,205.259C133.282,206.082,174.704,187.403,194.012,150.892C212.355,116.205,198.218,75.961,178.214,42.205C158.712,9.295,130.236,-20.594,91.988,-21.276C52.777,-21.975,19.586,4.905,0.27,39.035C-18.732,72.609,-21.864,113.183,-3.227,146.96C16.043,181.883,52.109,204.464,91.988,205.259" fill="rgba(53, 150, 230, 0.4)" class="triangle-float1"></path><path d="M10.517,53.284C24.84,52.686,35.141,41.286,42.404,28.927C49.797,16.348,55.424,1.429,48.561,-11.447C41.381,-24.918,25.782,-30.946,10.517,-30.898C-4.656,-30.85,-19.423,-24.288,-27.113,-11.208C-34.901,2.039,-34.086,18.525,-26.342,31.798C-18.661,44.963,-4.712,53.92,10.517,53.284" fill="rgba(53, 150, 230, 0.4)" class="triangle-float1"></path><path d="M1358.8144975521325 185.56817776240692L1498.0928097413794 91.62376997932138 1404.1484019582938-47.65454220992555 1264.870089769047 46.28986557315997z" fill="rgba(53, 150, 230, 0.4)" class="triangle-float1"></path><path d="M1395.5039711203608 187.49099159518158L1503.4922895476993 58.79552515119329 1374.7968231037112-49.192793276145295 1266.8085046763724 79.502673167843z" fill="rgba(53, 150, 230, 0.4)" class="triangle-float3"></path><path d="M1503.6265246504138 111.78276456295566L1446.1671405717013-46.085595729076914 1345.7581643583812 169.24214864166802z" fill="rgba(53, 150, 230, 0.4)" class="triangle-float3"></path><path d="M96.78816228188995 378.46694443339464L-52.90093378175584 454.7373483896385 173.05856623813384 528.1560404970404z" fill="rgba(53, 150, 230, 0.4)" class="triangle-float1"></path><path d="M102.316,653.94C139.725,652.832,173.097,634.295,193.983,603.24C218.062,567.437,238.021,521.788,216.246,484.539C194.586,447.486,145.222,445.342,102.316,446.429C61.919,447.452,19.38,455.8,-2.036,490.068C-24.554,526.098,-22.083,573.123,0.739,608.962C22.057,642.44,62.644,655.115,102.316,653.94" fill="rgba(53, 150, 230, 0.4)" class="triangle-float2"></path><path d="M98.97280395427507 628.8020846882362L172.61915661484 477.8046849099761 21.621756836579934 404.15833224941116-52.02459582398501 555.1557320276712z" fill="rgba(53, 150, 230, 0.4)" class="triangle-float3"></path><path d="M1321.8376289801188 425.00171825871433L1265.8376289801188 521.9965634825714 1439.3298968159045 557.4991408706428z" fill="rgba(53, 150, 230, 0.4)" class="triangle-float2"></path><path d="M1499.4439114971628 567.9916050779898L1453.136835719907 406.49964016035227 1291.6448708022695 452.8067159376082 1337.9519465795254 614.2986808552457z" fill="rgba(53, 150, 230, 0.4)" class="triangle-float2"></path><path d="M1343.641,509.367C1361.031,510.458,1379.276,504.334,1388.092,489.305C1396.992,474.133,1393.52,455.141,1384.202,440.222C1375.461,426.226,1360.142,418.188,1343.641,418.132C1327.036,418.075,1310.49,425.335,1302.597,439.944C1295.015,453.977,1299.789,470.542,1307.906,484.272C1315.845,497.701,1328.072,508.39,1343.641,509.367" fill="rgba(53, 150, 230, 0.4)" class="triangle-float1"></path></g><defs><mask id="SvgjsMask1038"><rect width="1440" height="560" fill="#ffffff"></rect></mask><style>
                @keyframes float1 {
                    0%{transform: translate(0, 0)}
                    50%{transform: translate(-10px, 0)}
                    100%{transform: translate(0, 0)}
                }

                .triangle-float1 {
                    animation: float1 5s infinite;
                }

                @keyframes float2 {
                    0%{transform: translate(0, 0)}
                    50%{transform: translate(-5px, -5px)}
                    100%{transform: translate(0, 0)}
                }

                .triangle-float2 {
                    animation: float2 4s infinite;
                }

                @keyframes float3 {
                    0%{transform: translate(0, 0)}
                    50%{transform: translate(0, -10px)}
                    100%{transform: translate(0, 0)}
                }

                .triangle-float3 {
                    animation: float3 6s infinite;
                }
            </style></defs></svg>